<svg width="76" height="82" fill="none" xmlns="http://www.w3.org/2000/svg"><path fill-rule="evenodd" clip-rule="evenodd" d="M11.526 1.396c-.387.207-.915.676-1.173 1.042l-.47.667-.04 17.643-.041 17.644-.694.175c-1.021.257-2.906 1.279-4.075 2.209-1.894 1.507-3.576 4.112-4.242 6.568-.388 1.432-.39 4.856-.005 6.257 1.198 4.346 4.679 7.826 9.02 9.018 1.417.39 4.838.39 6.256 0 4.341-1.192 7.822-4.672 9.02-9.018.386-1.4.383-4.825-.005-6.257-.682-2.514-2.378-5.105-4.354-6.651-1.153-.902-3.275-2.027-4.158-2.203l-.503-.1V3.44l-.364-.69C14.892 1.223 13 .608 11.526 1.396zm25.027 0c-.387.207-.915.676-1.173 1.042l-.47.666-.046 4.015c-.045 3.968-.041 4.025.325 4.72.204.386.671.913 1.038 1.171.583.41.8.47 1.734.47.934 0 1.151-.06 1.734-.47.367-.258.83-.78 1.03-1.158.353-.668.364-.81.364-4.551 0-3.74-.011-3.883-.364-4.55-.806-1.528-2.699-2.143-4.172-1.355zm25.027 0c-.387.207-.915.676-1.173 1.042l-.47.667-.04 17.643-.041 17.644-.694.175c-1.02.257-2.906 1.279-4.075 2.209-1.894 1.507-3.576 4.112-4.242 6.568-.388 1.432-.39 4.856-.005 6.257 1.198 4.346 4.679 7.826 9.02 9.018 1.417.39 4.838.39 6.256 0 4.341-1.192 7.822-4.672 9.02-9.018.386-1.4.383-4.825-.005-6.257-.682-2.514-2.378-5.105-4.354-6.651-1.153-.902-3.275-2.027-4.158-2.203l-.503-.1V3.44l-.364-.69c-.806-1.527-2.699-2.142-4.172-1.354zm-26.2 18.668c-6.075 1.354-10.234 6.78-9.88 12.887.052.905.207 2.067.345 2.584.628 2.36 2.342 5 4.215 6.49 1.17.93 3.054 1.952 4.077 2.21l.696.174v34.326l.364.69c.2.379.663.9 1.03 1.158.583.41.8.47 1.734.47.934 0 1.151-.06 1.734-.47.367-.258.83-.78 1.03-1.158l.364-.69V44.407l.519-.097c.812-.153 3.064-1.347 4.154-2.203 1.937-1.522 3.672-4.18 4.342-6.65.388-1.433.39-4.857.004-6.257-1.171-4.25-4.574-7.736-8.706-8.92-1.577-.452-4.494-.556-6.022-.216zm1.056 6.249c-2.477.667-4.13 2.484-4.611 5.07-.75 4.03 3.093 7.817 7.171 7.065 2.693-.496 4.589-2.42 5.101-5.174.336-1.806-.36-3.943-1.726-5.31-1.607-1.608-3.816-2.222-5.935-1.651zM11.409 44.458c-2.477.667-4.13 2.484-4.611 5.069-.75 4.03 3.093 7.817 7.171 7.066 2.693-.497 4.589-2.42 5.101-5.175.336-1.805-.36-3.943-1.726-5.31-1.607-1.607-3.816-2.221-5.935-1.65zm50.054 0c-2.477.667-4.13 2.484-4.611 5.069-.75 4.03 3.093 7.817 7.171 7.066 2.693-.497 4.589-2.42 5.101-5.175.336-1.805-.36-3.943-1.726-5.31-1.607-1.607-3.816-2.221-5.935-1.65zm-49.937 24.51c-.387.208-.915.677-1.173 1.043l-.47.666-.046 4.015c-.045 3.968-.041 4.025.325 4.719.204.387.671.914 1.038 1.172.582.41.8.47 1.734.47.934 0 1.151-.06 1.734-.47.367-.258.83-.78 1.03-1.158.353-.668.364-.81.364-4.551 0-3.74-.011-3.883-.364-4.55-.806-1.528-2.699-2.143-4.172-1.355zm50.054 0c-.387.208-.915.677-1.173 1.043l-.47.666-.046 4.015c-.045 3.968-.041 4.025.325 4.719.204.387.671.914 1.038 1.172.583.41.8.47 1.734.47.934 0 1.151-.06 1.734-.47.367-.258.83-.78 1.03-1.158.353-.668.364-.81.364-4.551 0-3.74-.011-3.883-.364-4.55-.806-1.528-2.699-2.143-4.172-1.355z" fill="url(#paint0_linear_1_1561)" stroke="url(#paint1_linear_1_1561)"/><defs><linearGradient id="paint0_linear_1_1561" x1="37.961" y1="1.052" x2="37.961" y2="81.052" gradientUnits="userSpaceOnUse"><stop stop-color="#FA9A29"/><stop offset="1" stop-color="#DB6E1F"/></linearGradient><linearGradient id="paint1_linear_1_1561" x1="37.961" y1="1.052" x2="37.961" y2="81.052" gradientUnits="userSpaceOnUse"><stop stop-color="#FA9A29"/><stop offset="1" stop-color="#DB6E1F"/></linearGradient></defs></svg>