<svg width="20" height="25" fill="none" xmlns="http://www.w3.org/2000/svg"><path d="M8.374 9.748a.875.875 0 01-1.218-.228l-5.064-7.4a.875.875 0 011.445-.985l5.064 7.401a.875.875 0 01-.228 1.217v-.005zM17.678.903a.877.877 0 01.229 1.216L11.06 12.125l3.182 4.65a3.938 3.938 0 11-1.444.985L10 13.675l-2.798 4.088a3.937 3.937 0 11-1.444-.984l10.704-15.64a.874.874 0 011.216-.236zm-1.99 18.222a1.312 1.312 0 100 2.625 1.312 1.312 0 000-2.625zm-11.375 0a1.313 1.313 0 100 2.625 1.313 1.313 0 000-2.625z" fill="#FBFBFB"/></svg>