<svg width="80" height="80" fill="none" xmlns="http://www.w3.org/2000/svg"><circle cx="40" cy="40" r="36.5" stroke="url(#paint0_linear_1_1537)" stroke-width="7"/><path d="M60.818 49.335l.001-.003c.46-1.175.681-2.582.681-4.204v-8.665a2.5 2.5 0 00-2.5-2.5h-.058a2.5 2.5 0 00-2.5 2.5v8.521c0 1.568-.324 2.702-.904 3.469-.54.713-1.481 1.13-2.972 1.13-1.356-.023-2.285-.429-2.883-1.143-.597-.766-.93-1.895-.93-3.456v-8.52a2.5 2.5 0 00-2.5-2.5h-.058a2.5 2.5 0 00-2.5 2.5v8.664c0 3.017.748 5.332 2.35 6.828l.002.003c1.602 1.473 3.796 2.179 6.515 2.179 1.282 0 2.455-.148 3.512-.45h0l.008-.002c1.09-.33 2.04-.841 2.84-1.538h0l.007-.006c.807-.73 1.434-1.67 1.889-2.807z" fill="url(#paint1_linear_1_1537)" stroke="url(#paint2_linear_1_1537)"/><path d="M39.056 41.385h0l.005-.008a8.119 8.119 0 001.262-2.367c.332-.921.495-1.924.495-3.003 0-1.559-.259-2.906-.802-4.02-.512-1.1-1.234-1.992-2.167-2.667-.9-.667-1.958-1.136-3.164-1.412a17.033 17.033 0 00-3.81-.408H23a2.5 2.5 0 00-2.5 2.5v21.387a2.5 2.5 0 002.5 2.5h.165a2.5 2.5 0 002.5-2.5v-5.3a1.5 1.5 0 011.5-1.5h2.172c.546 0 1.048.296 1.31.772a432.956 432.956 0 011.978 3.633h0l.004.008a284.88 284.88 0 011.978 3.575 2.52 2.52 0 002.21 1.312c1.899 0 3.14-2.044 2.205-3.72l-2.69-4.817c-.402-.72-.029-1.748.835-2.272h0l.01-.007a7.872 7.872 0 001.879-1.686zm-3.813-3.454h0l-.004.007a2.869 2.869 0 01-1.042 1.166c-.467.297-1.029.517-1.697.65-.682.137-1.415.206-2.2.206h-3.135a1.5 1.5 0 01-1.5-1.5v-4.726a1.5 1.5 0 011.5-1.5h3.566c.785 0 1.491.07 2.121.205l.009.002.008.001c.61.11 1.115.313 1.525.6l.007.005.007.004c.398.259.694.604.895 1.045l.004.008.004.008c.218.436.342 1.023.342 1.788 0 .856-.147 1.524-.41 2.031z" fill="url(#paint3_linear_1_1537)" stroke="url(#paint4_linear_1_1537)"/><defs><linearGradient id="paint0_linear_1_1537" x1="40" y1="0" x2="40" y2="80" gradientUnits="userSpaceOnUse"><stop stop-color="#FA9A29"/><stop offset="1" stop-color="#DB6E1F"/></linearGradient><linearGradient id="paint1_linear_1_1537" x1="52.598" y1="34.463" x2="52.598" y2="53.638" gradientUnits="userSpaceOnUse"><stop stop-color="#FA9A29"/><stop offset="1" stop-color="#DB6E1F"/></linearGradient><linearGradient id="paint2_linear_1_1537" x1="52.598" y1="34.463" x2="52.598" y2="53.638" gradientUnits="userSpaceOnUse"><stop stop-color="#FA9A29"/><stop offset="1" stop-color="#DB6E1F"/></linearGradient><linearGradient id="paint3_linear_1_1537" x1="30.659" y1="28" x2="30.659" y2="53.387" gradientUnits="userSpaceOnUse"><stop stop-color="#FA9A29"/><stop offset="1" stop-color="#DB6E1F"/></linearGradient><linearGradient id="paint4_linear_1_1537" x1="30.659" y1="28" x2="30.659" y2="53.387" gradientUnits="userSpaceOnUse"><stop stop-color="#FA9A29"/><stop offset="1" stop-color="#DB6E1F"/></linearGradient></defs></svg>