<svg width="102" height="97" fill="none" xmlns="http://www.w3.org/2000/svg"><path fill-rule="evenodd" clip-rule="evenodd" d="M19.252 1.265c-1.376.624-2.273 2.489-1.86 3.867.194.648 1.837 3.082 4.197 6.22 1.044 1.389 1.829 1.801 3.252 1.71 1.322-.084 2.17-.627 2.747-1.76.626-1.227.438-2.41-.622-3.92-2.19-3.122-4.12-5.61-4.588-5.917-.672-.44-2.36-.548-3.126-.2zm60.654.078c-.656.328-2.464 2.564-4.81 5.951-1.126 1.625-1.32 2.762-.684 4.008.578 1.133 1.425 1.676 2.747 1.76 1.906.122 2.093-.044 5.645-4.992 1.766-2.461 2.112-3.333 1.792-4.521-.56-2.082-2.815-3.142-4.69-2.206zM49.782 6.306c-1.507.2-3.148 1.036-4.304 2.19-.828.827-1.468 2-4.882 8.941-3.017 6.134-4.023 8.01-4.331 8.08-.22.049-4.137.623-8.703 1.276-7.274 1.04-8.45 1.256-9.516 1.747-1.65.761-3.042 2.108-3.819 3.694-.587 1.2-.63 1.423-.63 3.337 0 3.389-.114 3.225 7.615 10.84l6.542 6.445-1.477 8.497c-1.612 9.279-1.669 10.065-.875 12.148 1.358 3.568 5.92 5.728 9.485 4.492.537-.186 4.382-2.125 8.544-4.309L51 69.714l7.723 4.044c4.248 2.224 8.13 4.166 8.625 4.315 2.024.61 4.79.106 6.546-1.19 1.977-1.46 3.279-3.903 3.279-6.153 0-.513-.658-4.745-1.462-9.403l-1.462-8.47 6.541-6.446c7.731-7.617 7.616-7.453 7.61-10.84-.004-1.802-.067-2.185-.52-3.16a8.177 8.177 0 00-4.374-4.114c-.438-.171-4.524-.85-9.082-1.505-4.557-.656-8.469-1.232-8.692-1.28-.314-.068-1.228-1.769-4.064-7.563-2.012-4.111-3.972-7.937-4.356-8.502-1.603-2.363-4.452-3.551-7.529-3.141zm.483 6.846c-.117.141-2.145 4.18-4.507 8.976-4.213 8.555-4.31 8.728-5.141 9.205-.74.424-2.003.65-10.027 1.792-5.049.718-9.423 1.398-9.72 1.51-.578.22-.873.91-.597 1.402.092.165 3.176 3.225 6.853 6.802 3.677 3.576 6.83 6.709 7.004 6.961.733 1.058.699 1.445-1.01 11.384-.902 5.248-1.586 9.68-1.521 9.85.065.17.337.392.604.494.561.213.236.37 10.797-5.213 6.548-3.461 6.984-3.661 8-3.663 1.02-.003 1.434.187 8.3 3.813 10.69 5.643 9.932 5.278 10.495 5.064.268-.102.533-.36.589-.572.055-.213-.629-4.648-1.52-9.856-1.682-9.818-1.717-10.206-1.006-11.283.173-.262 3.35-3.421 7.06-7.02 3.71-3.599 6.796-6.697 6.857-6.885.178-.55-.085-1.066-.654-1.282-.292-.111-4.618-.783-9.613-1.494-4.995-.711-9.328-1.39-9.629-1.508-.3-.118-.784-.463-1.074-.768-.29-.304-2.461-4.444-4.825-9.2-4.194-8.441-4.31-8.65-4.899-8.707-.331-.033-.698.057-.816.198zm-43.703 42.8c-2.044.677-3.95 1.386-4.239 1.575C1.655 57.965 1 59.313 1 60.25c0 .948.613 2.128 1.394 2.684 1.168.832 2.177.736 6.223-.587 1.987-.65 3.887-1.35 4.221-1.557.71-.438 1.443-1.826 1.443-2.728 0-1.766-1.608-3.357-3.382-3.346-.342.002-2.294.558-4.337 1.236zm83.207-.963c-1.183.528-2.05 1.836-2.05 3.092 0 .885.74 2.275 1.443 2.709.334.206 2.233.907 4.22 1.557 4.047 1.323 5.056 1.419 6.224.587.781-.556 1.394-1.736 1.394-2.684 0-.998-.682-2.322-1.43-2.774-.905-.548-7.79-2.765-8.56-2.756-.36.004-.918.125-1.24.269zM49.83 83.056c-.27.106-.739.43-1.044.72-1.063 1.008-1.105 1.233-1.105 5.821 0 4.165.008 4.256.485 5.07.55.937 1.77 1.647 2.835 1.647 1.064 0 2.285-.71 2.835-1.648.475-.812.485-.91.485-4.968 0-4.51-.086-4.974-1.099-5.92-.957-.897-2.259-1.173-3.393-.722z" fill="url(#paint0_linear_1_1567)" stroke="url(#paint1_linear_1_1567)"/><defs><linearGradient id="paint0_linear_1_1567" x1="51" y1="1" x2="51" y2="96.314" gradientUnits="userSpaceOnUse"><stop stop-color="#FA9A29"/><stop offset="1" stop-color="#DB6E1F"/></linearGradient><linearGradient id="paint1_linear_1_1567" x1="51" y1="1" x2="51" y2="96.314" gradientUnits="userSpaceOnUse"><stop stop-color="#FA9A29"/><stop offset="1" stop-color="#DB6E1F"/></linearGradient></defs></svg>