<svg width="22" height="24" fill="none" xmlns="http://www.w3.org/2000/svg"><path d="M15.863 7.095l-1.33.53 1.33.53a1.313 1.313 0 11-.976 2.438L11 9.04l-3.887 1.556a1.313 1.313 0 11-.976-2.438l1.33-.532-1.33-.53a1.313 1.313 0 11.976-2.438L11 6.212l3.887-1.555a1.313 1.313 0 11.976 2.438zm6.075-.372c.008 8.361-2.757 14.84-5.36 16.69a2.188 2.188 0 01-3.439-1.633c-.073-.99-.255-2.406-.706-3.525-.584-1.442-1.223-1.442-1.433-1.442-.849 0-1.287 1.085-1.43 1.441-.452 1.118-.634 2.534-.707 3.525a2.188 2.188 0 01-3.441 1.633C2.819 21.562.054 15.084.062 6.722A6.563 6.563 0 016.625.188h8.75a6.562 6.562 0 016.563 6.536zm-2.625 0a3.938 3.938 0 00-3.938-3.91h-8.75a3.938 3.938 0 00-3.938 3.913c-.006 6.682 1.95 11.979 3.643 13.963.65-5.627 3.174-6.502 4.67-6.502s4.02.876 4.67 6.5c1.692-1.981 3.65-7.278 3.643-13.961v-.003z" fill="#FBFBFB"/></svg>