<svg width="54" height="90" fill="none" xmlns="http://www.w3.org/2000/svg"><path fill-rule="evenodd" clip-rule="evenodd" d="M7.236.239C4.878.751 2.38 2.627 1.156 4.806-.086 7.02.001 3.992.001 44.996c0 41.002-.087 37.976 1.155 40.188 1.268 2.258 3.891 4.17 6.333 4.616 1.459.267 37.563.267 39.022 0 2.442-.446 5.065-2.358 6.333-4.616 1.242-2.212 1.155.814 1.155-40.189s.087-37.976-1.155-40.189C51.576 2.548 48.953.636 46.51.19 44.965-.092 8.554-.047 7.236.24zm.608 6.172c-.505.253-1.058.71-1.314 1.085-.394.58-.447.86-.5 2.64l-.06 1.99h42.06l-.06-1.99c-.053-1.78-.106-2.06-.5-2.64-.256-.375-.809-.832-1.314-1.085l-.873-.436H8.717l-.873.436zM6.001 43.237v24.96h41.998V18.278H6.001v24.958zm.035 34.772c.052 3.76.062 3.85.494 4.485.256.376.808.832 1.314 1.085l.873.436h36.566l.873-.436c.506-.253 1.058-.71 1.314-1.085.432-.636.442-.725.494-4.485l.054-3.837H5.982l.054 3.837zm19.817-2.179c-1.218.593-1.851 1.55-1.852 2.8-.002 1.753 1.252 3.013 2.999 3.013 3.833 0 4.038-5.71.215-6.006-.5-.038-1.044.039-1.362.193z" fill="url(#paint0_linear_1_1555)"/><defs><linearGradient id="paint0_linear_1_1555" x1="27" y1="0" x2="27" y2="90" gradientUnits="userSpaceOnUse"><stop stop-color="#FA9A29"/><stop offset="1" stop-color="#DB6E1F"/></linearGradient></defs></svg>