<svg width="81" height="80" fill="none" xmlns="http://www.w3.org/2000/svg"><path fill-rule="evenodd" clip-rule="evenodd" d="M2.03.356C.68 1.068.017 2.693.48 4.155c.157.497 6.774 7.191 37.483 37.922C63.58 67.712 75.453 79.49 75.89 79.703c1.88.915 4.205-.391 4.405-2.475.14-1.448-.028-1.692-3.762-5.457-1.895-1.911-3.415-3.5-3.378-3.53.038-.03.522-.326 1.077-.658 2.153-1.29 4.201-3.678 5.173-6.034.512-1.242.928-3.299.928-4.585 0-3.092-3.907-4.366-5.678-1.852-.347.493-.478.914-.602 1.939-.087.72-.293 1.67-.458 2.111-.754 2.015-2.717 3.542-4.982 3.873l-.703.103-14.845-14.85-14.845-14.85h35.863l.003 4.259c.003 3.806.034 4.325.292 4.884 1.174 2.544 5.022 2.306 5.805-.359.117-.4.152-3.785.113-10.972-.063-11.612-.01-11.02-1.219-13.54-1.201-2.503-3.33-4.632-5.833-5.834-2.665-1.28.186-1.165-30.492-1.216l-27.346-.045-5.08-5.07C6.934 2.159 5.054.395 4.666.234A3.132 3.132 0 002.03.356zm24.781 21.67l5.156 5.16h42.151l-.073-2.695c-.081-2.997-.208-3.536-1.159-4.925-.647-.945-1.737-1.8-2.91-2.282l-.816-.334-23.752-.042-23.753-.041 5.156 5.16zM3.125 17.969c-1.399.24-2.34 1.353-2.64 3.123-.122.714-.158 6.518-.123 19.536.057 20.747-.039 19.046 1.22 21.667 1.2 2.503 3.33 4.633 5.832 5.834 2.631 1.263.752 1.164 23 1.217l19.854.047.695-.367c.408-.215.888-.652 1.162-1.058.388-.576.467-.85.469-1.63.003-1.183-.41-2.018-1.315-2.657l-.663-.469-19.56-.078-19.558-.078-.884-.357a6.574 6.574 0 01-3.603-3.604l-.357-.884-.045-12.386-.044-12.386h3.879c3.712 0 3.908-.015 4.574-.352 1.507-.762 2.147-2.722 1.365-4.18-.208-.387-.677-.915-1.042-1.172l-.666-.47-4.07-.048-4.07-.049.105-2.999c.14-4.014.143-3.978-.3-4.733-.628-1.072-1.966-1.683-3.215-1.467z" fill="url(#paint0_linear_1_1532)"/><defs><linearGradient id="paint0_linear_1_1532" x1="40.333" y1="0" x2="40.333" y2="80" gradientUnits="userSpaceOnUse"><stop stop-color="#FA9A29"/><stop offset="1" stop-color="#DB6E1F"/></linearGradient></defs></svg>