<svg width="82" height="82" fill="none" xmlns="http://www.w3.org/2000/svg"><path fill-rule="evenodd" clip-rule="evenodd" d="M20.826 1.363c-.452.239-.85.624-1.157 1.12l-.469.757-.047 3.618-.047 3.618-1.203.494a12.635 12.635 0 00-6.94 6.945l-.497 1.21H7.012c-3.415 0-3.464.005-4.277.41-2.31 1.152-2.314 4.358-.007 5.535.54.276.933.306 3.965.306h3.366v12.5H8.287c-1.554 0-1.858.046-2.462.364-.378.2-.9.663-1.157 1.03-.41.582-.469.798-.469 1.732 0 .933.059 1.15.47 1.732.257.366.778.83 1.157 1.03.603.318.907.363 2.46.363h1.773v12.5H6.693c-3.032 0-3.425.031-3.965.306-2.307 1.178-2.303 4.384.007 5.535.813.405.862.41 4.277.41h3.454l.497 1.211c1.43 3.487 4.336 6.172 7.886 7.287.25.079.273.39.273 3.576 0 3.454.004 3.5.41 4.313 1.151 2.31 4.358 2.314 5.535.007.275-.54.305-.933.305-3.965V71.94h12.501v1.772c0 1.554.045 1.858.364 2.462.2.378.663.9 1.029 1.157.582.41.799.469 1.732.469.934 0 1.15-.059 1.733-.47.366-.257.829-.778 1.029-1.157.319-.603.363-.907.363-2.46V71.94h12.501v3.366c0 3.032.03 3.425.306 3.965a3.08 3.08 0 005.549-.035c.387-.778.395-.865.395-4.249v-3.454l1.211-.497c3.187-1.307 5.645-3.757 6.934-6.91l.511-1.249h3.454c3.384 0 3.471-.008 4.25-.396a3.08 3.08 0 00.034-5.549c-.56-.285-.947-.305-5.933-.305-5.914 0-5.96.007-6.859 1.03-.492.56-.662 1.062-.942 2.78-.43 2.637-2.326 4.597-4.925 5.09-.678.129-6.267.165-20.158.131l-19.22-.047-.898-.362a6.37 6.37 0 01-3.665-3.833c-.264-.758-.28-1.946-.28-20.415 0-18.47.016-19.658.28-20.415a6.37 6.37 0 013.665-3.833l.899-.363 19.22-.047c13.938-.034 19.475.003 20.151.132.513.098 1.278.354 1.7.568.934.473 2.145 1.654 2.59 2.524.79 1.55.794 1.624.794 13.864v11.427l.364.689c.444.84 1.52 1.552 2.517 1.664 1.43.162 3.088-1.096 3.318-2.517l.092-.568h1.752c1.533 0 1.838-.046 2.44-.364.38-.2.9-.663 1.158-1.029.41-.582.47-.799.47-1.732 0-.934-.06-1.15-.47-1.733-.258-.366-.778-.829-1.157-1.029-.604-.319-.907-.363-2.461-.363h-1.773v-12.5h3.366c3.032 0 3.425-.03 3.965-.306 2.308-1.177 2.304-4.383-.007-5.535-.813-.405-.862-.41-4.277-.41H71.53l-.497-1.21a12.584 12.584 0 00-6.948-6.948l-1.21-.497V7.016c0-3.415-.005-3.464-.41-4.277-1.152-2.31-4.358-2.315-5.535-.007-.276.54-.306.933-.306 3.965v3.366h-12.5V8.29c0-1.554-.046-1.857-.364-2.46-.2-.38-.663-.9-1.03-1.158-.582-.41-.798-.47-1.732-.47-.933 0-1.15.06-1.732.47-.366.258-.83.778-1.03 1.157-.318.604-.363.907-.363 2.461v1.773h-12.5V6.697c0-3.001-.033-3.429-.298-3.946-.818-1.594-2.695-2.208-4.249-1.388zM35.042 26.52c-.74.276-1.458.796-1.837 1.328-.168.236-2.315 5.712-4.772 12.17-3.742 9.834-4.467 11.87-4.467 12.54 0 2.703 3.14 4.076 5.155 2.255.596-.538.7-.753 1.901-3.928l.31-.82h9.61l.75 1.984c.888 2.35 1.146 2.736 2.18 3.252.998.497 1.703.492 2.731-.02 1.189-.593 1.663-1.366 1.657-2.705-.004-.962-.284-1.765-4.417-12.666-2.992-7.892-4.555-11.816-4.854-12.188-.905-1.127-2.693-1.671-3.947-1.202zm18.691.474c-1.942.896-2.503 3.327-1.127 4.893 1.516 1.727 4.097 1.416 5.135-.619.254-.497.31-.842.26-1.62-.07-1.089-.309-1.52-1.276-2.303-.483-.39-.746-.479-1.552-.519-.596-.03-1.152.035-1.44.168zm-.249 9.371c-.452.24-.85.624-1.157 1.12l-.469.757-.045 7.24c-.031 5.057.009 7.44.133 7.901.24.89 1.264 1.905 2.17 2.148a3.183 3.183 0 003.637-1.597c.355-.665.355-.674.355-7.854 0-3.953-.056-7.456-.126-7.783-.15-.708-1.073-1.788-1.783-2.085-.784-.328-1.925-.264-2.715.153zM35 40.418a7904.87 7904.87 0 00-1.15 3.045c-.056.15.467.195 2.3.195 1.317 0 2.35-.062 2.322-.138-1.77-4.712-2.254-5.954-2.318-5.953-.043.001-.562 1.284-1.154 2.851z" fill="url(#paint0_linear_1_1549)" stroke="url(#paint1_linear_1_1549)" stroke-width=".5"/><defs><linearGradient id="paint0_linear_1_1549" x1="40.998" y1="1" x2="40.998" y2="81" gradientUnits="userSpaceOnUse"><stop stop-color="#FA9A29"/><stop offset="1" stop-color="#DB6E1F"/></linearGradient><linearGradient id="paint1_linear_1_1549" x1="40.998" y1="1" x2="40.998" y2="81" gradientUnits="userSpaceOnUse"><stop stop-color="#FA9A29"/><stop offset="1" stop-color="#DB6E1F"/></linearGradient></defs></svg>