<svg width="20" height="20" fill="none" xmlns="http://www.w3.org/2000/svg"><path d="M11.75 7.375V3a.876.876 0 011.494-.62l1.569 1.57L18.13.63a.876.876 0 011.238 1.24l-3.32 3.317 1.57 1.569A.875.875 0 0117 8.25h-4.375a.875.875 0 01-.875-.875zM7.375 11.75H3a.876.876 0 00-.62 1.494l1.57 1.569L.63 18.13a.876.876 0 001.24 1.238l3.317-3.32 1.569 1.57A.875.875 0 008.25 17v-4.375a.875.875 0 00-.875-.875zm.335-9.558a.875.875 0 00-.954.189L5.187 3.95 1.87.63A.875.875 0 10.631 1.869l3.32 3.318-1.57 1.569A.875.875 0 003 8.25h4.375a.875.875 0 00.875-.875V3a.875.875 0 00-.54-.808zm8.34 12.62l1.57-1.568A.875.875 0 0017 11.75h-4.375a.875.875 0 00-.875.875V17a.875.875 0 001.494.62l1.569-1.57 3.318 3.32a.875.875 0 001.238-1.24l-3.32-3.317z" fill="#FBFBFB"/></svg>