<svg width="28" height="20" fill="none" xmlns="http://www.w3.org/2000/svg"><path d="M27.453 9.467c-.04-.088-.998-2.216-3.115-4.332C21.506 2.308 17.938.813 14 .813c-3.938 0-7.506 1.495-10.335 4.322C1.55 7.251.591 9.379.547 9.467a1.321 1.321 0 000 1.067c.04.09.998 2.216 3.116 4.332 2.83 2.827 6.4 4.322 10.337 4.322 3.938 0 7.506-1.495 10.334-4.322 2.117-2.116 3.075-4.243 3.116-4.332a1.32 1.32 0 00.003-1.067zm-5.038 3.61c-2.348 2.312-5.179 3.486-8.415 3.486-3.236 0-6.067-1.174-8.412-3.487A14.258 14.258 0 013.228 10a14.268 14.268 0 012.36-3.075C7.934 4.611 10.764 3.438 14 3.438c3.236 0 6.066 1.173 8.412 3.487A14.26 14.26 0 0124.772 10a14.267 14.267 0 01-2.36 3.076h.003zM14 5.187a4.813 4.813 0 100 9.626 4.813 4.813 0 000-9.626zm0 7a2.187 2.187 0 110-4.374 2.187 2.187 0 010 4.375z" fill="#FBFBFB"/></svg>