<svg width="60" height="60" fill="none" xmlns="http://www.w3.org/2000/svg"><path d="M58.58 51.319L44.784 37.524a24.12 24.12 0 003.704-12.875c0-13.39-10.855-24.244-24.245-24.244S0 11.26 0 24.65s10.854 24.243 24.244 24.243c5.15 0 9.922-1.61 13.847-4.346l13.63 13.631a4.836 4.836 0 003.43 1.417 4.84 4.84 0 003.43-1.417 4.85 4.85 0 00-.002-6.858zM24.243 41.038c-9.05 0-16.388-7.337-16.388-16.388 0-9.05 7.338-16.388 16.388-16.388s16.388 7.337 16.388 16.388c0 9.05-7.337 16.388-16.388 16.388z" fill="#fff"/></svg>