<svg width="38" height="39" fill="none" xmlns="http://www.w3.org/2000/svg"><g clip-path="url(#clip0_36_90)" fill="#C9CDD5"><path d="M20.192 38.068h-2.384a3.502 3.502 0 01-3.499-3.498v-.807a15.343 15.343 0 01-2.382-.988l-.572.571a3.498 3.498 0 01-4.947 0L4.722 31.66a3.498 3.498 0 010-4.948l.572-.57a15.34 15.34 0 01-.99-2.383h-.806A3.502 3.502 0 010 20.261v-2.385a3.502 3.502 0 013.498-3.498h.807c.262-.82.593-1.617.989-2.383l-.572-.571a3.498 3.498 0 010-4.948L6.408 4.79a3.498 3.498 0 014.948 0l.571.572a15.352 15.352 0 012.382-.989v-.806A3.502 3.502 0 0117.808.068h2.384a3.502 3.502 0 013.499 3.499v.806c.82.262 1.616.593 2.382.99l.572-.573a3.498 3.498 0 014.947 0l1.686 1.686a3.498 3.498 0 010 4.948l-.572.572c.396.765.727 1.561.989 2.382h.807A3.502 3.502 0 0138 17.876v2.385a3.502 3.502 0 01-3.498 3.498h-.807c-.262.82-.593 1.617-.989 2.382l.572.572a3.498 3.498 0 010 4.948l-1.686 1.685a3.498 3.498 0 01-4.948 0l-.571-.571c-.766.396-1.562.727-2.382.989v.806a3.502 3.502 0 01-3.499 3.498zM12.3 30.436a13.122 13.122 0 003.402 1.413c.491.126.835.57.835 1.077v1.644c0 .701.57 1.272 1.272 1.272h2.384c.702 0 1.272-.57 1.272-1.272v-1.644c0-.507.344-.95.835-1.078a13.123 13.123 0 003.402-1.412 1.113 1.113 0 011.354.172l1.164 1.164a1.271 1.271 0 001.798 0l1.687-1.686a1.271 1.271 0 000-1.798l-1.165-1.165a1.11 1.11 0 01-.17-1.354 13.12 13.12 0 001.411-3.401c.127-.492.57-.835 1.078-.835h1.644c.701 0 1.271-.571 1.271-1.272v-2.385c0-.701-.57-1.272-1.271-1.272h-1.644c-.508 0-.95-.343-1.078-.835a13.124 13.124 0 00-1.412-3.401 1.113 1.113 0 01.171-1.354l1.165-1.164a1.271 1.271 0 000-1.798l-1.687-1.687a1.271 1.271 0 00-1.797 0l-1.165 1.164c-.36.36-.917.43-1.354.171A13.121 13.121 0 0022.3 6.288a1.113 1.113 0 01-.835-1.078V3.567c0-.702-.57-1.272-1.271-1.272h-2.385c-.701 0-1.272.57-1.272 1.272V5.21c0 .508-.344.951-.835 1.078A13.123 13.123 0 0012.299 7.7a1.113 1.113 0 01-1.354-.17L9.781 6.364a1.271 1.271 0 00-1.798 0L6.296 8.05a1.271 1.271 0 000 1.798l1.165 1.165c.36.36.43.916.17 1.354a13.12 13.12 0 00-1.411 3.401c-.127.492-.57.835-1.078.835H3.498c-.7 0-1.271.57-1.271 1.272v2.385c0 .701.57 1.271 1.271 1.271h1.644c.508 0 .951.344 1.078.835a13.124 13.124 0 001.412 3.402c.258.437.188.995-.171 1.354l-1.165 1.164a1.271 1.271 0 000 1.798l1.687 1.687a1.27 1.27 0 001.797 0l1.165-1.165c.265-.264.816-.489 1.354-.17z"/><path d="M19 27.336c-4.559 0-8.268-3.709-8.268-8.268 0-4.559 3.709-8.268 8.268-8.268 4.56 0 8.268 3.71 8.268 8.268 0 4.56-3.709 8.268-8.268 8.268zm0-14.31a6.048 6.048 0 00-6.041 6.042A6.048 6.048 0 0019 25.11a6.048 6.048 0 006.041-6.042A6.048 6.048 0 0019 13.027z"/></g><defs><clipPath id="clip0_36_90"><path fill="#fff" transform="translate(0 .068)" d="M0 0h38v38H0z"/></clipPath></defs></svg>