<svg width="199" height="36" fill="none" xmlns="http://www.w3.org/2000/svg"><path d="M17.753 25.999A7.751 7.751 0 1110 18.247 7.759 7.759 0 0117.753 26zm-.968-15.75a9.148 9.148 0 00-2.959.495 9 9 0 00-5.81 6.604A8.531 8.531 0 0110 17.122c.135 0 .27.006.4.012a8.88 8.88 0 018.443 9.647 8.532 8.532 0 01-.192 1.203 9 9 0 006.604-5.81 9.15 9.15 0 00.495-2.959 8.976 8.976 0 00-8.966-8.966zm6.778-7.999a10.185 10.185 0 00-9.776 7.324 10.237 10.237 0 012.998-.45 10.104 10.104 0 019.641 13.09A10.187 10.187 0 0023.563 2.25z" fill="url(#paint0_linear_1_497)"/><path d="M60.09 26v-2.05a4.808 4.808 0 01-2.12-.09 4.358 4.358 0 01-1.78-.99c-.52-.48-.93-1.093-1.23-1.84-.3-.753-.45-1.633-.45-2.64 0-1.007.15-1.89.45-2.65.3-.76.71-1.383 1.23-1.87a4.346 4.346 0 011.78-1.02 4.71 4.71 0 012.12-.1V11.6h2.39v1.15a4.71 4.71 0 012.12.1c.674.193 1.27.533 1.79 1.02s.93 1.11 1.23 1.87c.307.76.46 1.643.46 2.65s-.153 1.887-.46 2.64c-.3.747-.71 1.36-1.23 1.84a4.352 4.352 0 01-1.79.99 4.808 4.808 0 01-2.12.09V26h-2.39zm0-4.26v-6.82c-.58-.093-1.073-.053-1.48.12a2.21 2.21 0 00-.97.77c-.24.34-.413.737-.52 1.19a6.052 6.052 0 000 2.76c.107.44.28.827.52 1.16.247.327.57.567.97.72.407.153.9.187 1.48.1zm2.39 0c.587.087 1.08.053 1.48-.1.4-.16.724-.403.97-.73.247-.327.424-.703.53-1.13.114-.427.17-.867.17-1.32 0-.453-.056-.907-.17-1.36a3.479 3.479 0 00-.53-1.22 2.368 2.368 0 00-.97-.82c-.4-.187-.893-.233-1.48-.14v6.82zm12.366 4.56c-1.08 0-2.023-.243-2.83-.73a5.014 5.014 0 01-1.88-2.01c-.44-.86-.66-1.847-.66-2.96 0-1.133.227-2.127.68-2.98a5.014 5.014 0 011.89-2c.807-.48 1.74-.72 2.8-.72 1.087 0 2.034.243 2.84.73a4.999 4.999 0 011.88 2.02c.447.853.67 1.837.67 2.95 0 1.12-.226 2.11-.68 2.97a5.015 5.015 0 01-1.88 2.01c-.806.48-1.75.72-2.83.72zm0-2.26c.96 0 1.674-.32 2.14-.96.467-.64.7-1.467.7-2.48 0-1.047-.236-1.88-.71-2.5-.473-.627-1.183-.94-2.13-.94-.646 0-1.18.147-1.6.44-.413.287-.72.69-.92 1.21-.2.513-.3 1.11-.3 1.79 0 1.047.237 1.883.71 2.51.48.62 1.184.93 2.11.93zM84.935 26v-8.66h-3.61V15.2h9.63v2.14h-3.61V26h-2.41zm12.49.3c-1.08 0-2.024-.243-2.83-.73a5.015 5.015 0 01-1.88-2.01c-.44-.86-.66-1.847-.66-2.96 0-1.133.226-2.127.68-2.98a5.014 5.014 0 011.89-2c.806-.48 1.74-.72 2.8-.72 1.086 0 2.033.243 2.839.73a4.992 4.992 0 011.88 2.02c.447.853.67 1.837.67 2.95 0 1.12-.226 2.11-.68 2.97a5.008 5.008 0 01-1.88 2.01c-.806.48-1.75.72-2.83.72zm0-2.26c.96 0 1.673-.32 2.14-.96.466-.64.699-1.467.699-2.48 0-1.047-.236-1.88-.71-2.5-.473-.627-1.183-.94-2.13-.94-.646 0-1.18.147-1.6.44-.413.287-.72.69-.92 1.21-.2.513-.3 1.11-.3 1.79 0 1.047.237 1.883.71 2.51.48.62 1.184.93 2.11.93zm12.783 2.26c-1.054 0-1.937-.25-2.65-.75-.714-.5-1.25-1.18-1.61-2.04-.36-.867-.54-1.837-.54-2.91 0-1.087.18-2.06.54-2.92.36-.86.886-1.537 1.58-2.03.7-.5 1.563-.75 2.59-.75 1.02 0 1.903.25 2.65.75.753.493 1.336 1.17 1.75 2.03.413.853.62 1.827.62 2.92 0 1.08-.204 2.05-.61 2.91-.407.86-.98 1.54-1.72 2.04s-1.607.75-2.6.75zm-5.21 4.5V15.2h2.13v7.58h.3v8.02h-2.43zm4.84-6.66c.626 0 1.143-.157 1.55-.47.406-.313.706-.737.9-1.27.2-.54.3-1.14.3-1.8 0-.653-.1-1.247-.3-1.78-.2-.54-.51-.967-.93-1.28-.42-.32-.954-.48-1.6-.48-.614 0-1.114.15-1.5.45-.387.293-.674.707-.86 1.24-.18.527-.27 1.143-.27 1.85 0 .7.09 1.317.27 1.85.186.533.476.95.87 1.25.4.293.923.44 1.57.44zm12.414 2.16c-1.093 0-2.053-.237-2.88-.71a5.056 5.056 0 01-1.94-1.97c-.46-.84-.69-1.807-.69-2.9 0-1.18.227-2.203.68-3.07.453-.873 1.083-1.55 1.89-2.03.807-.48 1.74-.72 2.8-.72 1.12 0 2.07.263 2.85.79.787.52 1.37 1.257 1.75 2.21.38.953.523 2.077.43 3.37h-2.39v-.88c-.007-1.173-.213-2.03-.62-2.57-.407-.54-1.047-.81-1.92-.81-.987 0-1.72.307-2.2.92-.48.607-.72 1.497-.72 2.67 0 1.093.24 1.94.72 2.54.48.6 1.18.9 2.1.9.593 0 1.103-.13 1.53-.39.433-.267.767-.65 1-1.15l2.38.72c-.413.973-1.053 1.73-1.92 2.27-.86.54-1.81.81-2.85.81zm-3.72-5.03v-1.82h7.43v1.82h-7.43zm10.041 7.13v-4.29c.587 0 1.003-.2 1.25-.6.247-.4.443-1.093.59-2.08a28.6 28.6 0 00.23-1.86c.06-.653.11-1.343.15-2.07a97.36 97.36 0 00.12-2.3h8.04v8.91h1.09v4.29h-2.28V26h-6.92v2.4h-2.27zm3.23-4.29h4.75v-7.02h-3.53a86.438 86.438 0 01-.16 2.47c-.033.413-.07.81-.11 1.19-.033.373-.073.72-.12 1.04a9.103 9.103 0 01-.27 1.38 2.19 2.19 0 01-.56.94zm13.266 2.19c-.78 0-1.44-.147-1.98-.44-.54-.3-.95-.697-1.23-1.19a3.31 3.31 0 01-.41-1.63c0-.52.087-.987.26-1.4.173-.42.44-.78.8-1.08.36-.307.827-.557 1.4-.75.433-.14.94-.267 1.52-.38a35.55 35.55 0 011.9-.31c.687-.1 1.403-.207 2.15-.32l-.86.49c.007-.747-.16-1.297-.5-1.65-.34-.353-.913-.53-1.72-.53a3.11 3.11 0 00-1.41.34c-.453.227-.77.617-.95 1.17l-2.2-.69a4.088 4.088 0 011.52-2.2c.753-.553 1.767-.83 3.04-.83.96 0 1.803.157 2.53.47a3.142 3.142 0 011.63 1.54c.193.38.31.77.35 1.17.04.393.06.823.06 1.29V26h-2.11v-2.34l.35.38c-.487.78-1.057 1.353-1.71 1.72-.647.36-1.457.54-2.43.54zm.48-1.92c.547 0 1.013-.097 1.4-.29a2.73 2.73 0 00.92-.71c.233-.28.39-.543.47-.79a2.99 2.99 0 00.21-1.05c.02-.4.03-.723.03-.97l.74.22c-.727.113-1.35.213-1.87.3s-.967.17-1.34.25a8.571 8.571 0 00-.99.25c-.28.1-.517.217-.71.35a1.558 1.558 0 00-.45.46 1.2 1.2 0 00-.15.61c0 .267.067.503.2.71.133.2.327.36.58.48.26.12.58.18.96.18zm8.003 1.62l.02-10.8h2.44v5.2l3.95-5.2h3.01l-4.19 5.4 4.55 5.4h-3.19l-4.13-5.2V26h-2.46zm13.492 0v-8.66h-3.61V15.2h9.63v2.14h-3.61V26h-2.41zm12.49.3c-1.08 0-2.024-.243-2.83-.73a5.008 5.008 0 01-1.88-2.01c-.44-.86-.66-1.847-.66-2.96 0-1.133.226-2.127.68-2.98a5.01 5.01 0 011.89-2c.806-.48 1.74-.72 2.8-.72 1.086 0 2.033.243 2.84.73a5.005 5.005 0 011.88 2.02c.446.853.67 1.837.67 2.95 0 1.12-.227 2.11-.68 2.97a5.021 5.021 0 01-1.88 2.01c-.807.48-1.75.72-2.83.72zm0-2.26c.96 0 1.673-.32 2.14-.96.466-.64.7-1.467.7-2.48 0-1.047-.237-1.88-.71-2.5-.474-.627-1.184-.94-2.13-.94-.647 0-1.18.147-1.6.44-.414.287-.72.69-.92 1.21-.2.513-.3 1.11-.3 1.79 0 1.047.236 1.883.71 2.51.48.62 1.183.93 2.11.93zm12.783 2.26c-1.053 0-1.937-.25-2.65-.75-.713-.5-1.25-1.18-1.61-2.04-.36-.867-.54-1.837-.54-2.91 0-1.087.18-2.06.54-2.92.36-.86.887-1.537 1.58-2.03.7-.5 1.563-.75 2.59-.75 1.02 0 1.903.25 2.65.75.753.493 1.337 1.17 1.75 2.03.413.853.62 1.827.62 2.92 0 1.08-.203 2.05-.61 2.91-.407.86-.98 1.54-1.72 2.04s-1.607.75-2.6.75zm-5.21 4.5V15.2h2.13v7.58h.3v8.02h-2.43zm4.84-6.66c.627 0 1.143-.157 1.55-.47.407-.313.707-.737.9-1.27.2-.54.3-1.14.3-1.8 0-.653-.1-1.247-.3-1.78-.2-.54-.51-.967-.93-1.28-.42-.32-.953-.48-1.6-.48-.613 0-1.113.15-1.5.45-.387.293-.673.707-.86 1.24-.18.527-.27 1.143-.27 1.85 0 .7.09 1.317.27 1.85.187.533.477.95.87 1.25.4.293.923.44 1.57.44z" fill="#E5E7ED"/><defs><linearGradient id="paint0_linear_1_497" x1="6.619" y1="18" x2="31.261" y2="17.697" gradientUnits="userSpaceOnUse"><stop stop-color="#05C0CC"/><stop offset="1" stop-color="#5833C2"/></linearGradient></defs></svg>