<svg width="81" height="26" fill="none" xmlns="http://www.w3.org/2000/svg"><path d="M10 9.91a3.67 3.67 0 100-7.342 3.67 3.67 0 000 7.342zm0 12.658a3.67 3.67 0 100-7.34 3.67 3.67 0 000 7.34zm6.33-6.328a3.67 3.67 0 100-7.342 3.67 3.67 0 000 7.341zm-12.66 0a3.67 3.67 0 100-7.342 3.67 3.67 0 000 7.341z" fill="#009FE3"/><path d="M29.392 18.068V6.756h2.112l3.392 6.224 3.344-6.224h2.064v11.312h-1.392v-9.84l-3.728 6.88h-.64l-3.76-6.88v9.84h-1.392zM46.487 9.54c.672 0 1.253.107 1.744.32.49.214.901.512 1.232.896a3.6 3.6 0 01.752 1.376c.17.523.256 1.099.256 1.728a5.68 5.68 0 01-.256 1.744c-.16.523-.41.976-.752 1.36a3.41 3.41 0 01-1.248.88c-.501.214-1.088.32-1.76.32-.672 0-1.258-.106-1.76-.32a3.628 3.628 0 01-1.248-.88 3.926 3.926 0 01-.752-1.36 6.047 6.047 0 01-.24-1.744c0-.629.08-1.205.24-1.728.17-.533.422-.992.752-1.376a3.468 3.468 0 011.28-.896c.512-.213 1.099-.32 1.76-.32zm-.032 7.424c.459 0 .854-.08 1.184-.24.341-.16.619-.378.832-.656a2.68 2.68 0 00.48-.992c.107-.373.16-.778.16-1.216 0-.426-.053-.826-.16-1.2a2.532 2.532 0 00-.48-.992 2.15 2.15 0 00-.832-.672c-.33-.16-.725-.24-1.184-.24-.459 0-.853.08-1.184.24a2.32 2.32 0 00-.832.672 2.866 2.866 0 00-.48.992 4.805 4.805 0 00-.144 1.2c0 .438.048.843.144 1.216.107.374.267.704.48.992.224.278.502.496.832.656.33.16.725.24 1.184.24zm4.876-7.328h1.536l2.656 7.12 2.608-7.12h1.552l-3.248 8.432h-1.856L51.33 9.636zm15.09 7.36c-.181.246-.39.443-.624.592a3.29 3.29 0 01-.736.352 3.67 3.67 0 01-.752.176c-.245.032-.49.048-.736.048a4.24 4.24 0 01-1.12-.144 2.864 2.864 0 01-.96-.464 2.448 2.448 0 01-.672-.8 2.4 2.4 0 01-.24-1.088c0-.48.085-.88.256-1.2.181-.33.421-.597.72-.8.298-.202.64-.341 1.024-.416.394-.085.81-.128 1.248-.128h2.48c0-.714-.155-1.28-.464-1.696-.31-.426-.832-.65-1.568-.672a2.93 2.93 0 00-1.184.224 1.26 1.26 0 00-.704.736h-1.456a2.12 2.12 0 01.448-.976c.224-.277.49-.501.8-.672.31-.181.645-.314 1.008-.4a4.736 4.736 0 011.088-.128c.63 0 1.157.107 1.584.32.437.203.79.475 1.056.816.266.331.453.736.56 1.216.106.48.16 1.019.16 1.616v4.56H66.5l-.08-1.072zm-1.6-2.736c-.256 0-.555.006-.896.016-.33 0-.65.032-.96.096-.31.064-.56.198-.752.4-.181.203-.272.47-.272.8 0 .246.048.454.144.624.096.171.224.315.384.432.17.118.362.203.576.256.213.054.432.08.656.08.8 0 1.43-.192 1.888-.576.47-.394.71-.965.72-1.712v-.416H64.82zm3.963-4.624h1.536l2.656 7.12 2.608-7.12h1.552l-3.248 8.432h-1.856l-3.248-8.432zm10.322-3.088c.256 0 .475.086.656.256.181.16.272.374.272.64 0 .267-.09.486-.272.656a.923.923 0 01-.656.256.888.888 0 01-.656-.256.888.888 0 01-.256-.656c0-.266.085-.48.256-.64a.89.89 0 01.656-.256zm-.672 11.52V9.636h1.36v8.432h-1.36z" fill="#2F3B52"/></svg>