<svg width="246" height="40" fill="none" xmlns="http://www.w3.org/2000/svg"><path d="M15.78 26.678a6.89 6.89 0 11-6.89-6.89 6.897 6.897 0 016.89 6.89zm-.86-14a8.135 8.135 0 00-2.63.44 8.002 8.002 0 00-5.165 5.87 7.587 7.587 0 012.12-.19 7.894 7.894 0 017.335 9.645 8 8 0 005.87-5.165 8.14 8.14 0 00.44-2.63 7.979 7.979 0 00-7.97-7.97zm6.025-7.11a9.054 9.054 0 00-8.69 6.51 9.116 9.116 0 012.665-.4 8.982 8.982 0 018.57 11.635 9.055 9.055 0 00-2.545-17.745z" fill="url(#paint0_linear_26_5175)"/><path d="M52.052 11.232V8.348h4.06v2.884h1.008c1.195 0 2.287.168 3.276.504 1.008.318 1.857.794 2.548 1.428.71.635 1.25 1.428 1.624 2.38.392.934.588 2.007.588 3.22-.019 2.502-.719 4.406-2.1 5.712-1.381 1.288-3.313 1.942-5.796 1.96h-1.148v3.108h-4.06v-3.108h-1.008c-1.213 0-2.315-.158-3.304-.476-.99-.336-1.839-.821-2.548-1.456-.69-.634-1.232-1.418-1.624-2.352-.373-.952-.56-2.034-.56-3.248.019-2.501.719-4.396 2.1-5.684 1.381-1.306 3.313-1.97 5.796-1.988h1.148zm4.06 3.416v8.344h1.176c1.363 0 2.361-.392 2.996-1.176.635-.784.933-1.83.896-3.136-.037-1.213-.41-2.184-1.12-2.912-.69-.746-1.652-1.12-2.884-1.12h-1.064zm-4.06 8.344v-8.344h-1.176c-1.363 0-2.361.402-2.996 1.204-.635.784-.933 1.83-.896 3.136.037 1.214.401 2.184 1.092 2.912.71.728 1.68 1.092 2.912 1.092h1.064zm22.548 6.3c-2.39 0-4.228-.672-5.516-2.016-1.288-1.362-1.932-3.248-1.932-5.656 0-1.157.168-2.202.504-3.136.354-.952.84-1.764 1.456-2.436a5.98 5.98 0 012.324-1.512c.933-.354 1.988-.532 3.164-.532 1.157 0 2.193.178 3.108.532.933.336 1.717.84 2.352 1.512.653.672 1.148 1.484 1.484 2.436.355.934.532 1.979.532 3.136 0 2.427-.653 4.312-1.96 5.656-1.288 1.344-3.127 2.016-5.516 2.016zm0-11.76c-1.195 0-2.09.392-2.688 1.176-.579.784-.868 1.764-.868 2.94 0 1.195.29 2.184.868 2.968.597.784 1.493 1.176 2.688 1.176s2.072-.392 2.632-1.176c.579-.784.868-1.773.868-2.968 0-1.176-.29-2.156-.868-2.94-.56-.784-1.438-1.176-2.632-1.176zm8.527.196v-3.416h13.748v3.416h-4.928v11.34h-3.948v-11.34h-4.872zm22.262 11.564c-2.389 0-4.228-.672-5.516-2.016-1.288-1.362-1.932-3.248-1.932-5.656 0-1.157.168-2.202.504-3.136.355-.952.84-1.764 1.456-2.436a5.981 5.981 0 012.324-1.512c.933-.354 1.988-.532 3.164-.532 1.157 0 2.193.178 3.108.532.933.336 1.717.84 2.352 1.512.653.672 1.148 1.484 1.484 2.436.355.934.532 1.979.532 3.136 0 2.427-.653 4.312-1.96 5.656-1.288 1.344-3.127 2.016-5.516 2.016zm0-11.76c-1.195 0-2.091.392-2.688 1.176-.579.784-.868 1.764-.868 2.94 0 1.195.289 2.184.868 2.968.597.784 1.493 1.176 2.688 1.176s2.072-.392 2.632-1.176c.579-.784.868-1.773.868-2.968 0-1.176-.289-2.156-.868-2.94-.56-.784-1.437-1.176-2.632-1.176zm13.987-1.232a5.904 5.904 0 012.156-1.652c.877-.41 1.755-.625 2.632-.644a6.874 6.874 0 012.912.56c.896.374 1.643 1.008 2.24 1.904.485.654.84 1.419 1.064 2.296.224.878.336 1.802.336 2.772 0 1.214-.149 2.315-.448 3.304-.28.97-.765 1.81-1.456 2.52a5.699 5.699 0 01-2.128 1.456c-.84.318-1.68.476-2.52.476-.411 0-.821-.028-1.232-.084a5.777 5.777 0 01-2.464-.812 4.913 4.913 0 01-1.12-.98v7.812H115.4V14.312h3.752l.224 1.988zm3.696 1.232c-.579 0-1.101.112-1.568.336a3.282 3.282 0 00-1.148.868 4.436 4.436 0 00-.756 1.288 4.762 4.762 0 00-.252 1.568c-.019 1.25.308 2.259.98 3.024.691.747 1.624 1.139 2.8 1.176.635 0 1.176-.102 1.624-.308a2.79 2.79 0 001.092-.868c.299-.373.523-.812.672-1.316a5.196 5.196 0 00.252-1.652c0-.578-.084-1.12-.252-1.624a3.57 3.57 0 00-.7-1.316 3.03 3.03 0 00-1.12-.868c-.448-.205-.989-.308-1.624-.308zm16.794 8.54c.56 0 1.036-.084 1.428-.252a2.319 2.319 0 001.008-.896h4.144c-.205.766-.523 1.428-.952 1.988a5.066 5.066 0 01-1.512 1.372 6.57 6.57 0 01-1.932.784c-.709.15-1.456.224-2.24.224-2.389 0-4.2-.672-5.432-2.016-1.213-1.344-1.82-3.23-1.82-5.656 0-1.101.159-2.118.476-3.052.336-.933.803-1.736 1.4-2.408a5.968 5.968 0 012.212-1.596c.896-.373 1.913-.56 3.052-.56 1.325 0 2.473.234 3.444.7.971.467 1.736 1.11 2.296 1.932.579.803.961 1.746 1.148 2.828.205 1.083.205 2.24 0 3.472h-10.08c.075.878.383 1.624.924 2.24.541.598 1.353.896 2.436.896zm3.052-5.852c0-.466-.084-.877-.252-1.232a2.364 2.364 0 00-.672-.896 2.61 2.61 0 00-1.008-.532 4.068 4.068 0 00-1.176-.168c-.989.019-1.764.29-2.324.812-.541.504-.859 1.176-.952 2.016h6.384zm20.2-5.908v11.34h1.932v7.476h-3.948v-4.06h-9.324v4.06h-3.976v-7.476h.56c.467 0 .821-.121 1.064-.364.243-.261.439-.588.588-.98.168-.448.289-.924.364-1.428.075-.504.131-.924.168-1.26.131-1.25.196-2.464.196-3.64.019-1.194.047-2.417.084-3.668h12.292zm-3.976 11.34v-7.924h-4.648c0 .579-.019 1.167-.056 1.764a59.652 59.652 0 01-.084 1.792c-.037.71-.112 1.466-.224 2.268a5.807 5.807 0 01-.7 2.1h5.712zm17.124 1.596c-.56.747-1.251 1.279-2.072 1.596-.803.318-1.727.467-2.772.448-1.363-.037-2.502-.42-3.416-1.148a4.554 4.554 0 01-1.148-1.456c-.262-.578-.392-1.26-.392-2.044.018-.802.196-1.512.532-2.128.354-.634.886-1.157 1.596-1.568a6.743 6.743 0 012.016-.672c.765-.13 1.596-.196 2.492-.196h3.024c.056-.914-.159-1.596-.644-2.044-.467-.466-1.13-.71-1.988-.728-.28 0-.57.019-.868.056a3.092 3.092 0 00-.84.224c-.243.112-.458.27-.644.476-.168.187-.28.42-.336.7h-4.06c.093-.896.336-1.642.728-2.24a4.86 4.86 0 011.54-1.484 6.288 6.288 0 012.044-.784 10.933 10.933 0 012.352-.252c.448 0 .905.028 1.372.084.466.038.924.13 1.372.28.448.13.868.318 1.26.56.41.224.793.523 1.148.896a4.933 4.933 0 011.176 2.52c.168.934.242 1.848.224 2.744v7.98h-3.612l-.084-1.82zm-.14-4.704h-2.884c-.28 0-.598.028-.952.084a2.691 2.691 0 00-.924.308 2.25 2.25 0 00-.672.588c-.168.243-.252.542-.252.896 0 .299.056.56.168.784.13.224.289.41.476.56.205.15.448.27.728.364.28.075.56.112.84.112a3.414 3.414 0 001.512-.28 3.717 3.717 0 001.26-.868 3.18 3.18 0 00.504-1.008c.13-.392.196-.905.196-1.54zm10.87.896v5.628h-3.948V14.312h3.948v5.712h1.96l3.192-5.712h4.508l-4.368 7 4.704 7.756H192.4l-3.304-5.628h-2.1zm10.072-5.712v-3.416h13.748v3.416h-4.928v11.34h-3.948v-11.34h-4.872zm22.262 11.564c-2.389 0-4.228-.672-5.516-2.016-1.288-1.362-1.932-3.248-1.932-5.656 0-1.157.168-2.202.504-3.136.355-.952.84-1.764 1.456-2.436a5.987 5.987 0 012.324-1.512c.934-.354 1.988-.532 3.164-.532 1.158 0 2.194.178 3.108.532.934.336 1.718.84 2.352 1.512.654.672 1.148 1.484 1.484 2.436.355.934.532 1.979.532 3.136 0 2.427-.653 4.312-1.96 5.656-1.288 1.344-3.126 2.016-5.516 2.016zm0-11.76c-1.194 0-2.09.392-2.688 1.176-.578.784-.868 1.764-.868 2.94 0 1.195.29 2.184.868 2.968.598.784 1.494 1.176 2.688 1.176 1.195 0 2.072-.392 2.632-1.176.579-.784.868-1.773.868-2.968 0-1.176-.289-2.156-.868-2.94-.56-.784-1.437-1.176-2.632-1.176zm13.987-1.232a5.912 5.912 0 012.156-1.652c.878-.41 1.755-.625 2.632-.644a6.871 6.871 0 012.912.56c.896.374 1.643 1.008 2.24 1.904.486.654.84 1.419 1.064 2.296.224.878.336 1.802.336 2.772 0 1.214-.149 2.315-.448 3.304-.28.97-.765 1.81-1.456 2.52a5.69 5.69 0 01-2.128 1.456c-.84.318-1.68.476-2.52.476a9.12 9.12 0 01-1.232-.084 5.79 5.79 0 01-2.464-.812 4.913 4.913 0 01-1.12-.98v7.812h-3.948V14.312h3.752l.224 1.988zm3.696 1.232a3.58 3.58 0 00-1.568.336c-.448.206-.83.495-1.148.868a4.436 4.436 0 00-.756 1.288 4.762 4.762 0 00-.252 1.568c-.018 1.25.308 2.259.98 3.024.691.747 1.624 1.139 2.8 1.176.635 0 1.176-.102 1.624-.308a2.79 2.79 0 001.092-.868c.299-.373.523-.812.672-1.316a5.196 5.196 0 00.252-1.652c0-.578-.084-1.12-.252-1.624a3.556 3.556 0 00-.7-1.316 3.022 3.022 0 00-1.12-.868c-.448-.205-.989-.308-1.624-.308z" fill="#182030"/><defs><linearGradient id="paint0_linear_26_5175" x1="5.883" y1="19.568" x2="27.787" y2="19.299" gradientUnits="userSpaceOnUse"><stop stop-color="#05C0CC"/><stop offset="1" stop-color="#5833C2"/></linearGradient></defs></svg>