<svg width="140" height="26" fill="none" xmlns="http://www.w3.org/2000/svg"><path d="M9.863 17.012a4.306 4.306 0 11-8.612 0 4.306 4.306 0 018.612 0zm-.538-8.75c-.56 0-1.115.094-1.644.275a5 5 0 00-3.228 3.669 4.723 4.723 0 011.325-.119 4.933 4.933 0 014.585 6.028 5 5 0 003.668-3.228 4.987 4.987 0 00-4.706-6.625zm3.766-4.444a5.659 5.659 0 00-5.432 4.07 5.687 5.687 0 011.666-.25 5.613 5.613 0 015.356 7.271 5.66 5.66 0 00-1.59-11.09z" fill="url(#paint0_linear_26_4330)"/><path d="M34 18.212v-1.84h-1.28c-.64-.01-1.205-.128-1.696-.352a3.897 3.897 0 01-1.248-.928 4.075 4.075 0 01-.752-1.392 5.694 5.694 0 01-.256-1.744 4.83 4.83 0 01.336-1.76c.213-.522.501-.965.864-1.328.373-.362.81-.64 1.312-.832a4.525 4.525 0 011.68-.304H34v-1.6h1.392v1.6h1.024c.608 0 1.163.102 1.664.304.512.192.955.47 1.328.832.373.363.667.806.88 1.328a4.85 4.85 0 01.336 1.76c0 .63-.09 1.211-.272 1.744a4.139 4.139 0 01-.784 1.392 3.85 3.85 0 01-1.264.928c-.501.224-1.072.342-1.712.352h-1.2v1.84H34zm-.928-9.28c-.448 0-.853.075-1.216.224-.352.15-.656.358-.912.624a2.718 2.718 0 00-.576.944 3.584 3.584 0 00-.192 1.2c0 .47.053.902.16 1.296.107.395.272.736.496 1.024.235.288.528.518.88.688.363.16.795.24 1.296.24H34v-6.24h-.928zm2.32 6.24h.992c.501 0 .928-.08 1.28-.24.363-.17.656-.4.88-.688a2.72 2.72 0 00.512-1.024c.107-.394.16-.826.16-1.296 0-.437-.07-.837-.208-1.2a2.423 2.423 0 00-.576-.944 2.525 2.525 0 00-.912-.624 3.047 3.047 0 00-1.2-.224h-.928v6.24zM46.175 9.54c.672 0 1.253.107 1.744.32.49.214.901.512 1.232.896a3.6 3.6 0 01.752 1.376c.17.523.256 1.099.256 1.728a5.71 5.71 0 01-.256 1.744c-.16.523-.411.976-.752 1.36a3.428 3.428 0 01-1.248.88c-.502.214-1.088.32-1.76.32-.672 0-1.259-.106-1.76-.32a3.628 3.628 0 01-1.248-.88 3.926 3.926 0 01-.752-1.36 6.047 6.047 0 01-.24-1.744c0-.629.08-1.205.24-1.728a3.89 3.89 0 01.752-1.376 3.496 3.496 0 011.264-.896c.501-.213 1.093-.32 1.776-.32zm-.032 7.424c.458 0 .853-.08 1.184-.24.341-.16.618-.378.832-.656a2.68 2.68 0 00.48-.992c.106-.373.16-.778.16-1.216 0-.426-.054-.826-.16-1.2a2.532 2.532 0 00-.48-.992 2.15 2.15 0 00-.832-.672c-.331-.16-.726-.24-1.184-.24-.459 0-.854.08-1.184.24a2.32 2.32 0 00-.832.672 2.866 2.866 0 00-.48.992 4.805 4.805 0 00-.144 1.2c0 .438.048.843.144 1.216.106.374.266.704.48.992.224.278.501.496.832.656.33.16.725.24 1.184.24zm12.06-7.328v1.2h-2.897v7.232h-1.36v-7.232H51.05v-1.2h7.152zm4.925-.096c.672 0 1.253.107 1.744.32.49.214.901.512 1.232.896a3.6 3.6 0 01.752 1.376c.17.523.256 1.099.256 1.728a5.71 5.71 0 01-.256 1.744c-.16.523-.41.976-.752 1.36a3.42 3.42 0 01-1.248.88c-.502.214-1.088.32-1.76.32-.672 0-1.259-.106-1.76-.32a3.626 3.626 0 01-1.248-.88 3.923 3.923 0 01-.752-1.36 6.047 6.047 0 01-.24-1.744c0-.629.08-1.205.24-1.728a3.9 3.9 0 01.752-1.376 3.495 3.495 0 011.264-.896c.501-.213 1.093-.32 1.776-.32zm-.032 7.424c.458 0 .853-.08 1.184-.24.341-.16.618-.378.832-.656a2.68 2.68 0 00.48-.992c.106-.373.16-.778.16-1.216 0-.426-.054-.826-.16-1.2a2.532 2.532 0 00-.48-.992 2.152 2.152 0 00-.832-.672c-.33-.16-.726-.24-1.184-.24-.459 0-.854.08-1.184.24a2.32 2.32 0 00-.832.672 2.862 2.862 0 00-.48.992 4.805 4.805 0 00-.144 1.2c0 .438.048.843.144 1.216.106.374.266.704.48.992.224.278.501.496.832.656.33.16.725.24 1.184.24zm7.195 4.144h-1.36V9.636h1.296l.064 1.296a2.66 2.66 0 011.168-1.024 3.94 3.94 0 011.616-.368c.651 0 1.2.112 1.648.336.459.214.838.518 1.136.912.31.384.539.843.688 1.376.15.523.224 1.088.224 1.696 0 .619-.074 1.19-.224 1.712a3.788 3.788 0 01-.688 1.36 3.292 3.292 0 01-1.168.912c-.469.214-1.029.32-1.68.32-.64 0-1.184-.101-1.632-.304a3.012 3.012 0 01-1.088-.8v4.048zm2.608-4.144c.459 0 .843-.08 1.152-.24.32-.17.576-.394.768-.672.203-.288.347-.618.432-.992.096-.373.15-.773.16-1.2 0-.426-.048-.826-.144-1.2a2.626 2.626 0 00-.432-.992 2.107 2.107 0 00-.8-.656c-.32-.17-.709-.256-1.168-.256-.544 0-1.013.15-1.408.448a2.743 2.743 0 00-.896 1.104 2.79 2.79 0 00-.24.768 4.857 4.857 0 00-.064.8c0 .32.022.619.064.896.043.267.123.523.24.768.203.406.496.747.88 1.024.395.267.88.4 1.456.4zm6.682-2.608c.032.374.107.72.224 1.04.128.31.299.582.512.816.214.235.475.422.784.56.32.128.688.192 1.104.192.203 0 .41-.016.624-.048a2.77 2.77 0 00.624-.192c.192-.096.363-.218.512-.368.15-.149.261-.33.336-.544h1.392a2.686 2.686 0 01-.496 1.056 2.833 2.833 0 01-.816.736c-.31.192-.656.336-1.04.432a5.37 5.37 0 01-1.168.128c-.672 0-1.258-.106-1.76-.32a3.466 3.466 0 01-1.232-.88 3.73 3.73 0 01-.736-1.36 6.047 6.047 0 01-.24-1.744c0-.629.085-1.205.256-1.728a4.11 4.11 0 01.768-1.376 3.41 3.41 0 011.216-.896c.48-.213 1.05-.32 1.712-.32.672 0 1.254.134 1.744.4.49.267.886.619 1.184 1.056.299.427.507.891.624 1.392.128.502.181.966.16 1.392 0 .096-.005.192-.016.288 0 .096-.005.192-.016.288h-6.256zm4.912-1.184c-.021-.714-.245-1.296-.672-1.744-.427-.448-.997-.672-1.712-.672-.394 0-.741.064-1.04.192a2.13 2.13 0 00-.752.528 2.543 2.543 0 00-.48.784 3.266 3.266 0 00-.224.912h4.88zm3.977-1.68c.01-.309.016-.618.016-.928v-.928h5.983v7.248h1.105v3.776H94.26v-2.592H88.1v2.592h-1.31v-3.776c.426 0 .762-.192 1.007-.576.15-.213.267-.517.353-.912.085-.405.149-.832.191-1.28.054-.49.086-.976.097-1.456.02-.49.031-.88.031-1.168zm4.64-.656h-3.33l-.032 1.504c-.01.555-.031 1.072-.063 1.552-.011.214-.027.448-.049.704a7.027 7.027 0 01-.112.768 4.503 4.503 0 01-.208.784 2.645 2.645 0 01-.367.736h4.16v-6.048zm9.436 6.16a2.33 2.33 0 01-.624.592 3.29 3.29 0 01-.736.352 3.665 3.665 0 01-.752.176c-.245.032-.49.048-.736.048a4.24 4.24 0 01-1.12-.144 2.864 2.864 0 01-.96-.464 2.448 2.448 0 01-.672-.8 2.4 2.4 0 01-.24-1.088c0-.48.085-.88.256-1.2.181-.33.421-.597.72-.8.299-.202.64-.341 1.024-.416.394-.085.81-.128 1.248-.128h2.48c0-.714-.155-1.28-.464-1.696-.309-.426-.832-.65-1.568-.672a2.93 2.93 0 00-1.184.224 1.26 1.26 0 00-.704.736h-1.456a2.11 2.11 0 01.448-.976c.224-.277.49-.501.8-.672.31-.181.645-.314 1.008-.4a4.734 4.734 0 011.088-.128c.629 0 1.157.107 1.584.32.437.203.789.475 1.056.816.267.331.453.736.56 1.216.107.48.16 1.019.16 1.616v4.56h-1.136l-.08-1.072zm-1.6-2.736c-.256 0-.555.006-.896.016-.33 0-.65.032-.96.096-.31.064-.56.198-.752.4-.181.203-.272.47-.272.8 0 .246.048.454.144.624.096.171.224.315.384.432.17.118.363.203.576.256.213.054.432.08.656.08.8 0 1.429-.192 1.888-.576.469-.394.709-.965.72-1.712v-.416h-1.488zm4.923 3.808V9.636h1.36v3.632h1.472l2.496-3.632h1.552l-2.816 4.016 3.056 4.416h-1.6l-2.528-3.616h-1.632v3.616h-1.36zm14.521-8.432v1.2h-2.896v7.232h-1.36v-7.232h-2.896v-1.2h7.152zm4.925-.096c.672 0 1.254.107 1.744.32.491.214.902.512 1.232.896.342.384.592.843.752 1.376.171.523.256 1.099.256 1.728a5.68 5.68 0 01-.256 1.744c-.16.523-.41.976-.752 1.36a3.41 3.41 0 01-1.248.88c-.501.214-1.088.32-1.76.32-.672 0-1.258-.106-1.76-.32a3.639 3.639 0 01-1.248-.88 3.94 3.94 0 01-.752-1.36 6.047 6.047 0 01-.24-1.744c0-.629.08-1.205.24-1.728.171-.533.422-.992.752-1.376a3.504 3.504 0 011.264-.896c.502-.213 1.094-.32 1.776-.32zm-.032 7.424c.459 0 .854-.08 1.184-.24a2.2 2.2 0 00.832-.656 2.68 2.68 0 00.48-.992 4.4 4.4 0 00.16-1.216c0-.426-.053-.826-.16-1.2a2.532 2.532 0 00-.48-.992 2.144 2.144 0 00-.832-.672c-.33-.16-.725-.24-1.184-.24-.458 0-.853.08-1.184.24-.33.16-.608.384-.832.672a2.876 2.876 0 00-.48.992 4.805 4.805 0 00-.144 1.2c0 .438.048.843.144 1.216.107.374.267.704.48.992.224.278.502.496.832.656.331.16.726.24 1.184.24zm7.196 4.144h-1.36V9.636h1.296l.064 1.296a2.65 2.65 0 011.168-1.024 3.939 3.939 0 011.616-.368c.651 0 1.2.112 1.648.336.459.214.837.518 1.136.912.309.384.539.843.688 1.376.149.523.224 1.088.224 1.696 0 .619-.075 1.19-.224 1.712a3.807 3.807 0 01-.688 1.36 3.3 3.3 0 01-1.168.912c-.469.214-1.029.32-1.68.32-.64 0-1.184-.101-1.632-.304a3.01 3.01 0 01-1.088-.8v4.048zm2.608-4.144c.459 0 .843-.08 1.152-.24.32-.17.576-.394.768-.672.203-.288.347-.618.432-.992.096-.373.149-.773.16-1.2 0-.426-.048-.826-.144-1.2a2.613 2.613 0 00-.432-.992 2.107 2.107 0 00-.8-.656c-.32-.17-.709-.256-1.168-.256-.544 0-1.013.15-1.408.448a2.743 2.743 0 00-.896 1.104 2.817 2.817 0 00-.24.768 4.824 4.824 0 00-.064.8c0 .32.021.619.064.896.043.267.123.523.24.768.203.406.496.747.88 1.024.395.267.88.4 1.456.4z" fill="#2F3B52"/><defs><linearGradient id="paint0_linear_26_4330" x1="3.677" y1="12.568" x2="17.367" y2="12.4" gradientUnits="userSpaceOnUse"><stop stop-color="#05C0CC"/><stop offset="1" stop-color="#5833C2"/></linearGradient></defs></svg>