<svg width="49" height="50" fill="none" xmlns="http://www.w3.org/2000/svg"><path fill-rule="evenodd" clip-rule="evenodd" d="M16.855.5h15.29c3.412 0 6.175 0 8.351.292 2.264.305 4.19.959 5.721 2.49 1.532 1.532 2.186 3.458 2.49 5.722.293 2.176.293 4.939.293 8.35v15.291c0 3.412 0 6.175-.292 8.351-.305 2.264-.959 4.19-2.49 5.721-1.532 1.532-3.458 2.186-5.722 2.49-2.176.293-4.939.293-8.35.293H16.854c-3.412 0-6.175 0-8.351-.292-2.264-.305-4.19-.959-5.722-2.49C1.251 45.186.597 43.26.292 40.995 0 38.82 0 36.057 0 32.646V17.354c0-3.412 0-6.175.292-8.351.305-2.264.959-4.19 2.49-5.722C4.314 1.751 6.24 1.097 8.504.792 10.68.5 13.443.5 16.854.5zM45 24.546V17.5c0-3.592-.004-6.085-.257-7.963-.245-1.82-.69-2.761-1.354-3.426-.665-.665-1.605-1.11-3.426-1.354C38.085 4.504 35.593 4.5 32 4.5H17c-3.592 0-6.085.004-7.963.257-1.82.245-2.761.69-3.426 1.354-.665.665-1.11 1.605-1.354 3.426C4.004 11.415 4 13.907 4 17.5v9.593l9.334-10.889c1.94-2.264 5.507-2.049 7.16.433l5.583 8.373 6.383-3.648a4.5 4.5 0 013.904-.27L45 24.545zm-16.7 3.8l6.144-3.51a.5.5 0 01.434-.03L45 28.853V32.5c0 3.592-.004 6.085-.257 7.963-.245 1.82-.69 2.761-1.354 3.426-.665.665-1.605 1.11-3.426 1.354-1.878.253-4.37.257-7.963.257H17c-3.592 0-6.085-.004-7.963-.257-1.82-.245-2.761-.69-3.426-1.354-.665-.665-1.11-1.605-1.354-3.426-.235-1.746-.255-4.024-.257-7.223l12.37-14.433a.5.5 0 01.796.048l13.17 19.754a2 2 0 103.328-2.218l-5.363-8.045z" fill="#CED2DC"/></svg>