<svg width="49" height="48" fill="none" xmlns="http://www.w3.org/2000/svg"><path d="M29.03 17.455V6.546a2.182 2.182 0 013.725-1.543l3.911 3.913L44.94.64a2.183 2.183 0 013.087 3.087l-8.277 8.275 3.914 3.91a2.181 2.181 0 01-1.544 3.726H31.212a2.182 2.182 0 01-2.182-2.182zM18.121 28.363H7.214a2.182 2.182 0 00-1.544 3.726l3.914 3.91-8.277 8.274a2.183 2.183 0 003.087 3.088l8.274-8.277 3.91 3.913a2.183 2.183 0 003.726-1.543V30.545a2.182 2.182 0 00-2.181-2.182zm.835-23.832a2.182 2.182 0 00-2.378.472l-3.91 3.913L4.392.64a2.183 2.183 0 10-3.087 3.087l8.277 8.275-3.914 3.91a2.182 2.182 0 001.544 3.726h10.909a2.182 2.182 0 002.181-2.182V6.546a2.182 2.182 0 00-1.347-2.015zM39.75 35.999l3.914-3.91a2.181 2.181 0 00-1.544-3.726H31.212a2.182 2.182 0 00-2.182 2.182v10.909a2.182 2.182 0 003.725 1.543l3.911-3.913 8.274 8.277a2.183 2.183 0 003.087-3.087l-8.277-8.275z" fill="url(#paint0_linear_22_730)"/><defs><linearGradient id="paint0_linear_22_730" x1="-7.5" y1="48" x2="67" y2="48" gradientUnits="userSpaceOnUse"><stop stop-color="#26E2E7"/><stop offset="1" stop-color="#1393A2"/></linearGradient></defs></svg>