<svg width="39" height="48" fill="none" xmlns="http://www.w3.org/2000/svg"><path d="M15.954 18.275a1.732 1.732 0 01-1.31.28 1.732 1.732 0 01-1.12-.745L3.417 2.777a1.804 1.804 0 01-.223-1.305 1.78 1.78 0 01.725-1.1 1.722 1.722 0 012.382.405l10.107 15.036a1.793 1.793 0 01.275 1.331 1.764 1.764 0 01-.73 1.14l.001-.01zM34.524.306a1.795 1.795 0 01.724 1.833 1.797 1.797 0 01-.267.638L21.314 23.103l6.35 9.447a7.73 7.73 0 015.607-.056 7.904 7.904 0 014.216 3.76 8.126 8.126 0 01.681 5.664 8 8 0 01-3.2 4.685 7.751 7.751 0 01-5.454 1.322 7.82 7.82 0 01-4.932-2.715 8.086 8.086 0 01-1.899-5.369 8.076 8.076 0 012.1-5.29l-5.584-8.3-5.584 8.306a8.076 8.076 0 012.1 5.29 8.086 8.086 0 01-1.9 5.37 7.82 7.82 0 01-4.93 2.714 7.751 7.751 0 01-5.454-1.321A8 8 0 01.23 41.925a8.126 8.126 0 01.681-5.664 7.904 7.904 0 014.217-3.76 7.73 7.73 0 015.606.056L32.096.784a1.761 1.761 0 011.116-.752 1.716 1.716 0 011.311.274zm-3.973 37.017a2.58 2.58 0 00-1.455.45c-.43.292-.767.709-.965 1.196a2.71 2.71 0 00-.149 1.54c.101.518.35.993.717 1.366a2.585 2.585 0 002.855.578 2.63 2.63 0 001.175-.982 2.7 2.7 0 00-.325-3.367 2.597 2.597 0 00-1.853-.78zm-22.702 0c-.518 0-1.025.156-1.456.45-.43.292-.766.709-.964 1.196a2.71 2.71 0 00-.15 1.54c.102.518.351.993.717 1.366a2.581 2.581 0 002.855.578 2.63 2.63 0 001.176-.982 2.7 2.7 0 00-.326-3.367 2.597 2.597 0 00-1.852-.78z" fill="url(#paint0_linear_22_719)"/><defs><linearGradient id="paint0_linear_22_719" x1="0" y1="24" x2="38.4" y2="24" gradientUnits="userSpaceOnUse"><stop stop-color="#FA9A29"/><stop offset="1" stop-color="#DB6E1F"/></linearGradient></defs></svg>