<svg width="49" height="48" fill="none" xmlns="http://www.w3.org/2000/svg"><path d="M48.333 37.241a2.483 2.483 0 01-2.482 2.483h-5.794v5.793a2.483 2.483 0 01-4.965 0v-5.793h-24a2.483 2.483 0 01-2.483-2.483v-24H2.816a2.483 2.483 0 010-4.965H8.61V2.483a2.483 2.483 0 114.966 0v32.276H45.85a2.483 2.483 0 012.482 2.482zm-28.965-24h15.724v15.724a2.483 2.483 0 004.965 0V10.76a2.483 2.483 0 00-2.482-2.483H19.368a2.483 2.483 0 100 4.965z" fill="url(#paint0_linear_22_724)"/><defs><linearGradient id="paint0_linear_22_724" x1="0" y1="48" x2="56.5" y2="48" gradientUnits="userSpaceOnUse"><stop stop-color="#EB6CCD"/><stop offset="1" stop-color="#B0067D"/></linearGradient></defs></svg>