<svg width="24" height="23" fill="none" xmlns="http://www.w3.org/2000/svg"><path d="M10.2 1.181c.669-1.575 2.931-1.575 3.6 0l1.89 4.452a1.95 1.95 0 001.64 1.175l4.876.397c1.726.141 2.425 2.264 1.113 3.378l-3.708 3.149a1.91 1.91 0 00-.626 1.9l1.123 4.698c.398 1.662-1.433 2.974-2.913 2.087l-4.182-2.505a1.975 1.975 0 00-2.026 0l-4.182 2.505c-1.48.887-3.31-.425-2.913-2.087l1.123-4.697a1.91 1.91 0 00-.626-1.901l-3.708-3.15C-.63 9.47.068 7.347 1.794 7.206l4.876-.397a1.95 1.95 0 001.64-1.175L10.2 1.18z" fill="url(#paint0_linear_1_1580)"/><defs><linearGradient id="paint0_linear_1_1580" x1="12" y1="0" x2="12" y2="22.703" gradientUnits="userSpaceOnUse"><stop stop-color="#FA9A29"/><stop offset="1" stop-color="#DB6E1F"/></linearGradient></defs></svg>