<svg width="13" height="14" fill="none" xmlns="http://www.w3.org/2000/svg"><path d="M12.594 7c0 .52-.64.949-.767 1.428-.132.496.202 1.186-.049 1.62-.255.44-1.021.493-1.379.851-.357.358-.41 1.124-.851 1.38-.434.25-1.124-.084-1.62.048-.48.128-.908.767-1.428.767-.52 0-.949-.64-1.428-.767-.496-.132-1.186.202-1.62-.049-.44-.255-.493-1.021-.851-1.379-.357-.357-1.124-.41-1.38-.851-.25-.434.084-1.124-.048-1.62C1.045 7.948.406 7.52.406 7c0-.52.64-.949.767-1.428.132-.496-.202-1.186.049-1.62.255-.44 1.022-.493 1.379-.851.358-.357.41-1.124.851-1.38.434-.25 1.124.084 1.62-.048.48-.128.908-.767 1.428-.767.52 0 .949.64 1.428.767.496.132 1.186-.202 1.62.049.44.255.493 1.022.851 1.379.358.358 1.124.41 1.38.851.25.434-.084 1.124.048 1.62.128.48.767.908.767 1.428z" fill="#7A808D"/><path d="M8.261 5.184l-2.32 2.32L4.74 6.302a.669.669 0 00-.946.946L5.48 8.935a.651.651 0 00.92 0L9.207 6.13a.669.669 0 00-.945-.946z" fill="#0E273C"/></svg>