<svg width="13" height="8" fill="none" xmlns="http://www.w3.org/2000/svg"><path d="M6.5.125c-2.484 0-4.736 1.36-6.398 3.566a.515.515 0 000 .615C1.764 6.516 4.016 7.875 6.5 7.875c2.484 0 4.736-1.36 6.398-3.567a.515.515 0 000-.614C11.236 1.484 8.984.125 6.5.125zm.178 6.603a2.736 2.736 0 01-2.906-2.906 2.74 2.74 0 012.55-2.55 2.736 2.736 0 012.906 2.906 2.749 2.749 0 01-2.55 2.55zm-.082-1.26a1.47 1.47 0 01-1.564-1.564A1.479 1.479 0 016.407 2.53 1.47 1.47 0 017.97 4.093a1.478 1.478 0 01-1.375 1.375z" fill="#7A808D" fill-opacity=".9"/></svg>